<svg version="1.2" xmlns="http://www.w3.org/2000/svg" viewBox="0 0 1000 1000" width="1000" height="1000">
	<title>contact-svg</title>
	<style>
		.s0 { fill: #016938 } 
		.s1 { fill: #01743e } 
		.s2 { fill: #026838 } 
		.s3 { fill: #025b31 } 
		.s4 { fill: #216613 } 
		.s5 { fill: #014e2a } 
	</style>
	<g id="Layer_12">
		<path id="Layer" class="s0" d="m0 0h1000v1000h-1000z"/>
	</g>
	<g id="Layer_11">
		<path id="Layer" class="s1" d="m1000 0h-1000v1000h758.1l241.9-253.8z"/>
	</g>
	<g id="Layer_10">
		<path id="Layer" class="s2" d="m1000 0h-1000v1000h531.5l468.5-448.2z"/>
	</g>
	<g id="Layer_9">
		<path id="Layer" class="s3" d="m1000 0h-1000v1000h284.2l715.8-604.4z"/>
	</g>
	<g id="Layer_8">
		<path id="Layer" class="s4" d="m1000 0h-1000v1000h8.7l991.3-739.7z"/>
	</g>
	<g id="Layer_7">
		<path id="Layer" class="s0" d="m1000 0h-1000v801l1000-654.5z"/>
	</g>
	<g id="Layer_6">
		<path id="Layer" class="s1" d="m1000 0h-1000v613.7l1000-566.8z"/>
	</g>
	<g id="Layer">
		<path id="Layer" class="s0" d="m905.7 0h-905.7v440z"/>
	</g>
	<g id="Layer_3">
		<path id="Layer" class="s5" d="m721.8 0h-721.8v259.3c218-76.7 545.3-195.2 721.8-259.3z"/>
	</g>
	<g id="Layer_4">
		<path id="Layer" class="s3" d="m423.5 0h-423.5v91.7z"/>
	</g>
</svg>