<svg version="1.2" xmlns="http://www.w3.org/2000/svg" viewBox="0 0 1000 1000" width="1000" height="1000">
	<title>password-svg</title>
	<style>
		.s0 { fill: #016938 } 
		.s1 { fill: #047640 } 
		.s2 { fill: #026838 } 
		.s3 { fill: #036335 } 
	</style>
	<g id="Layer_12">
		<path id="Layer" class="s0" d="m0 0h1000v1000h-1000z"/>
	</g>
	<g id="Layer_11">
		<path id="Layer" class="s1" d="m0 746.2l241.9 253.8h758.1v-1000h-1000z"/>
	</g>
	<g id="Layer_10">
		<path id="Layer" class="s2" d="m0 551.8l468.5 448.2h531.5v-1000h-1000z"/>
	</g>
	<g id="Layer_9">
		<path id="Layer" class="s3" d="m0 395.6l715.8 604.4h284.2v-1000h-1000z"/>
	</g>
	<g id="Layer_8">
		<path id="Layer" class="s0" d="m0 260.3l991.3 739.7h8.7v-1000h-1000z"/>
	</g>
	<g id="Layer_7">
		<path id="Layer" class="s1" d="m0 146.5l1000 654.5v-801h-1000z"/>
	</g>
	<g id="Layer_6">
		<path id="Layer" class="s3" d="m0 46.9l1000 566.8v-613.7h-1000z"/>
	</g>
	<g id="Layer">
		<path id="Layer" class="s0" d="m1000 440v-440h-905.7z"/>
	</g>
	<g id="Layer_3">
		<path id="Layer" class="s3" d="m1000 259.3v-259.3h-721.8c176.5 64.1 503.8 182.6 721.8 259.3z"/>
	</g>
	<g id="Layer_4">
		<path id="Layer" class="s1" d="m1000 91.7v-91.7h-423.5z"/>
	</g>
</svg>