<svg version="1.2" xmlns="http://www.w3.org/2000/svg" viewBox="0 0 1000 1000" width="1000" height="1000">
	<title>register-svg</title>
	<style>
		.s0 { fill: #8dc542 } 
		.s1 { fill: #016938 } 
		.s2 { fill: #03713d } 
		.s3 { fill: #02532d } 
		.s4 { fill: #035730 } 
		.s5 { fill: #025e33 } 
		.s6 { fill: #016234 } 
	</style>
	<g id="Layer_12">
		<path id="Layer" class="s0" d="m0 0h1000v1000h-1000z"/>
	</g>
	<g id="Layer_11">
		<path id="Layer" class="s1" d="m0 1000h1000v-1000h-758.1l-241.9 253.8z"/>
	</g>
	<g id="Layer_10">
		<path id="Layer" class="s2" d="m0 1000h1000v-1000h-531.5l-468.5 448.2z"/>
	</g>
	<g id="Layer_9">
		<path id="Layer" class="s3" d="m0 1000h1000v-1000h-284.2l-715.8 604.4z"/>
	</g>
	<g id="Layer_8">
		<path id="Layer" class="s4" d="m0 1000h1000v-1000h-8.7l-991.3 739.7z"/>
	</g>
	<g id="Layer_7">
		<path id="Layer" class="s5" d="m0 1000h1000v-801l-1000 654.5z"/>
	</g>
	<g id="Layer_6">
		<path id="Layer" class="s6" d="m0 1000h1000v-613.7l-1000 566.8z"/>
	</g>
	<g id="Layer">
		<path id="Layer" class="s3" d="m94.3 1000h905.7v-440z"/>
	</g>
	<g id="Layer_3">
		<path id="Layer" class="s4" d="m278.2 1000h721.8v-259.3c-218 76.7-545.3 195.2-721.8 259.3z"/>
	</g>
	<g id="Layer_4">
		<path id="Layer" class="s1" d="m576.5 1000h423.5v-91.7z"/>
	</g>
</svg>